<?xml version="1.0" encoding="utf-8"?>
<svg xmlns="http://www.w3.org/2000/svg" width="215.9mm" height="279.4mm" version="1.1" style="shape-rendering:geometricPrecision; text-rendering:geometricPrecision; image-rendering:optimizeQuality; fill-rule:evenodd; clip-rule:evenodd" viewBox="0 0 21590 27940">
  <defs>
    <style type="text/css">
   
    .fil1 {fill:white}
    .fil2 {fill:#4F4F8B}
    .fil0 {fill:#E6733A}
   
  </style>
  </defs>
  <g id="Capa_x0020_1">
    <g id="_105554120638304">
      <g>
        <path class="fil0" d="M11424.98 10887.02c58.78,-35.13 536.69,-122.36 645.4,-145.07 111.25,-23.24 219.37,-46.26 326.17,-69.16l239.4 -48.29c77.21,-16.78 44.43,-1.69 70.6,-36.16 4.52,-5.95 1377.18,-3236.72 1402.67,-3345.37 -208.88,29.16 -447.73,89.9 -658.78,135.79 -781.35,169.88 -536.18,-22.37 -859.17,721.31 -113.16,260.56 -1137.39,2666.35 -1166.29,2786.95z"/>
        <path class="fil0" d="M4905.89 12248.84c126.37,-0.59 479.74,-94.35 626.75,-125.6 134.08,-28.5 536.87,-132.75 644.7,-125.06l1419.39 -3381.23c-181.38,21.89 -743.62,154.19 -987.72,207.11 -109.69,23.78 -269.79,35.28 -303.08,90.05 -32.95,54.2 -87.01,211.92 -115.96,279.51l-351.03 834.84c-157.37,376.41 -314.43,738.96 -468.78,1112.06 -148.87,359.85 -334.92,748.92 -464.27,1108.32z"/>
        <path class="fil0" d="M9256.74 11334.16l1270.93 -266.12 1414.16 -3365.45c-193.81,22.43 -741.32,150.68 -989.44,203.67 -83.44,17.82 -258.28,23.13 -300.2,95.39l-936.61 2224.19c-78.38,183.81 -154.11,370.13 -234.31,556.25 -39.66,92.04 -218.47,493.13 -224.53,552.07z"/>
        <path class="fil0" d="M13601.14 10414.5c205.06,-23.69 849.77,-179.17 1142.2,-237.6 22.06,-4.41 56.86,-9.92 76.95,-15.26 76.05,-20.23 35.53,4.85 64.51,-41.6l1287.76 -3060.15c33.18,-78.7 95.02,-203.63 112.43,-278.53l-1204.07 251.62c-56.6,12.81 -46.7,4.77 -72.36,35.69 -28.35,34.15 -202.55,474.98 -235.29,553.16l-937.38 2224.53c-69.01,164.04 -186.21,400.17 -234.75,568.14z"/>
        <path class="fil0" d="M7078.38 11791.12c98.97,-2.97 943.78,-194.2 1190.47,-245.67l83.23 -24.56 1417.27 -3360.47c-203.88,24.9 -460.97,91.93 -662.31,135.66l-487.74 102.07c-66.47,13.88 -110.48,8.08 -140.23,59.4 -35.46,61.17 -84.43,206.42 -115.72,279.31 -39.48,92 -78.32,186.78 -117.08,278.22 -78.98,186.28 -155.9,368.59 -234.38,556.18l-703.51 1667.85c-73.86,174.39 -169.55,378.34 -230,552.01z"/>
        <path class="fil0" d="M4063.43 12312.91l1357.05 -3230.3c-102.25,-8.03 -959.33,193.9 -1132.08,230.71 -302.93,64.55 -502.54,153.56 -633.85,416.04 -147.42,294.65 -66.5,564.31 -33.48,924.96 19.52,213.1 40.18,426.48 59.5,638.99 40.07,440.66 19.82,890.35 382.86,1019.6z"/>
        <path class="fil0" d="M15771.19 9953.04l1793.88 -372.95c13.45,-161.69 -46.62,-568.16 -63.28,-749.81l-137.56 -1474.81c-11.76,-127.25 -16.85,-233.15 -67.47,-342.25 -36.15,-77.95 -121.26,-195.71 -197.27,-220.44l-1328.3 3160.26z"/>
      </g>
      <g>
        <path class="fil1" d="M15824.6 13412.09c-862.31,109.35 -705.28,1423.34 177.89,1307.7 329.15,-43.1 615.18,-362.53 563.67,-742.1 -44.88,-330.62 -357.12,-614.35 -741.56,-565.6z"/>
        <path class="fil1" d="M5243.81 13412.09c-862.3,109.35 -705.27,1423.34 177.89,1307.7 329.15,-43.1 615.18,-362.53 563.66,-742.1 -44.86,-330.62 -357.12,-614.35 -741.55,-565.6z"/>
        <path class="fil1" d="M11886.5 13411.72c-331.4,42.15 -616.82,356.91 -571.54,739.1 38.78,327.37 355.02,613.27 737.12,570.48 331.03,-37.08 615.04,-354.87 569.41,-737.68 -39.95,-335.13 -351.45,-620.68 -734.99,-571.9z"/>
        <path class="fil1" d="M7441.73 18430.33l1351.12 0c-140.54,-710.84 -1232.6,-765.86 -1351.12,0z"/>
      </g>
      <g>
        <g/>
      </g>
    </g>
  </g>
</svg>