<?xml version="1.0" encoding="UTF-8"?>
<!DOCTYPE svg PUBLIC "-//W3C//DTD SVG 1.1//EN" "http://www.w3.org/Graphics/SVG/1.1/DTD/svg11.dtd">
<!-- Creator: CorelDRAW -->
<svg xmlns="http://www.w3.org/2000/svg" xml:space="preserve" width="215.9mm" height="279.4mm" version="1.1" style="shape-rendering:geometricPrecision; text-rendering:geometricPrecision; image-rendering:optimizeQuality; fill-rule:evenodd; clip-rule:evenodd"
viewBox="0 0 21590 27940"
 xmlns:xlink="http://www.w3.org/1999/xlink"
 xmlns:xodm="http://www.corel.com/coreldraw/odm/2003">
 <defs>
  <style type="text/css">
   <![CDATA[
    .fil1 {fill:white}
    .fil2 {fill:#4F4F8B}
    .fil0 {fill:#E6733A}
   ]]>
  </style>
 </defs>
 <g id="Capa_x0020_1">
  <metadata id="CorelCorpID_0Corel-Layer"/>
  <g id="_105554120638304">
   <g>
    <path class="fil0" d="M11424.98 10887.02c58.78,-35.13 536.69,-122.36 645.4,-145.07 111.25,-23.24 219.37,-46.26 326.17,-69.16l239.4 -48.29c77.21,-16.78 44.43,-1.69 70.6,-36.16 4.52,-5.95 1377.18,-3236.72 1402.67,-3345.37 -208.88,29.16 -447.73,89.9 -658.78,135.79 -781.35,169.88 -536.18,-22.37 -859.17,721.31 -113.16,260.56 -1137.39,2666.35 -1166.29,2786.95z"/>
    <path class="fil0" d="M4905.89 12248.84c126.37,-0.59 479.74,-94.35 626.75,-125.6 134.08,-28.5 536.87,-132.75 644.7,-125.06l1419.39 -3381.23c-181.38,21.89 -743.62,154.19 -987.72,207.11 -109.69,23.78 -269.79,35.28 -303.08,90.05 -32.95,54.2 -87.01,211.92 -115.96,279.51l-351.03 834.84c-157.37,376.41 -314.43,738.96 -468.78,1112.06 -148.87,359.85 -334.92,748.92 -464.27,1108.32z"/>
    <path class="fil0" d="M9256.74 11334.16l1270.93 -266.12 1414.16 -3365.45c-193.81,22.43 -741.32,150.68 -989.44,203.67 -83.44,17.82 -258.28,23.13 -300.2,95.39l-936.61 2224.19c-78.38,183.81 -154.11,370.13 -234.31,556.25 -39.66,92.04 -218.47,493.13 -224.53,552.07z"/>
    <path class="fil0" d="M13601.14 10414.5c205.06,-23.69 849.77,-179.17 1142.2,-237.6 22.06,-4.41 56.86,-9.92 76.95,-15.26 76.05,-20.23 35.53,4.85 64.51,-41.6l1287.76 -3060.15c33.18,-78.7 95.02,-203.63 112.43,-278.53l-1204.07 251.62c-56.6,12.81 -46.7,4.77 -72.36,35.69 -28.35,34.15 -202.55,474.98 -235.29,553.16l-937.38 2224.53c-69.01,164.04 -186.21,400.17 -234.75,568.14z"/>
    <path class="fil0" d="M7078.38 11791.12c98.97,-2.97 943.78,-194.2 1190.47,-245.67l83.23 -24.56 1417.27 -3360.47c-203.88,24.9 -460.97,91.93 -662.31,135.66l-487.74 102.07c-66.47,13.88 -110.48,8.08 -140.23,59.4 -35.46,61.17 -84.43,206.42 -115.72,279.31 -39.48,92 -78.32,186.78 -117.08,278.22 -78.98,186.28 -155.9,368.59 -234.38,556.18l-703.51 1667.85c-73.86,174.39 -169.55,378.34 -230,552.01z"/>
    <path class="fil0" d="M4063.43 12312.91l1357.05 -3230.3c-102.25,-8.03 -959.33,193.9 -1132.08,230.71 -302.93,64.55 -502.54,153.56 -633.85,416.04 -147.42,294.65 -66.5,564.31 -33.48,924.96 19.52,213.1 40.18,426.48 59.5,638.99 40.07,440.66 19.82,890.35 382.86,1019.6z"/>
    <path class="fil0" d="M15771.19 9953.04l1793.88 -372.95c13.45,-161.69 -46.62,-568.16 -63.28,-749.81l-137.56 -1474.81c-11.76,-127.25 -16.85,-233.15 -67.47,-342.25 -36.15,-77.95 -121.26,-195.71 -197.27,-220.44l-1328.3 3160.26z"/>
   </g>
   <g>
    <path class="fil1" d="M13655.77 18970.01l0 -106.41c0,-910.95 721.4,-1729.24 1626.55,-1729.24 358.85,0 740.43,88.87 995.11,339.02 49.36,48.49 43.88,60.3 103.29,88.56l0 -321.16 1201.05 2.55c-29.48,82.51 -11.51,3081.59 -11.51,3438.86 -69.13,18.83 -1080.17,17.88 -1189.54,4.74l-1.02 -449.5c-121.99,78.41 -318.22,465.55 -1051.77,465.55 -946.28,0 -1672.16,-798.36 -1672.16,-1732.97zm-3758.95 148.12l-2504.48 0c15.11,390.17 151.83,644.89 471.13,733.19 248.44,68.69 512.37,40.58 713.69,-122.37 65.08,-52.68 77.32,-96.89 137.78,-157.01l1143.93 -1.47c-94.42,180.33 -86.45,309.78 -299.55,578.14 -649.19,817.57 -2413.95,791.38 -3065.62,-204.29 -256.37,-391.71 -349.8,-895.25 -247.74,-1436.77 178.71,-948.09 994.39,-1506.94 2119.12,-1377.53 533.45,61.37 937.68,308.78 1159.12,605.15 244.05,326.64 425.15,852.23 372.62,1382.96zm-6324.01 -1881.09l395.32 -2.94c-0.06,-215 -27.14,-838.25 9.38,-1004.26l1176.27 0.34 0 1006.86 672.64 0.65 -0.01 991.1 -667.86 0 -4.86 2442.94c-146.51,14.32 -977.12,4.8 -1189.47,4.62l1.81 -2444.75 -393.26 -2.81 0.04 -991.75zm8669.06 3465.94c-1013.05,0 -1815.65,-795.67 -1795.82,-1793.79 25.8,-1297.32 1241.08,-1996.53 2328.49,-1717.49 125.12,32.12 240.21,96.27 337.53,119.42l0.09 1008c-118.78,-44.4 -205.58,-141.01 -445.12,-186.3 -1028.81,-194.51 -1358.13,1189.12 -503.75,1539.21 155.82,63.85 351.16,79.45 529.86,38.01 235.74,-54.67 265.81,-117.86 419.01,-198.4l0 978.59c-20.64,41.4 -4.03,18.56 -40.71,40.21 -162.31,95.81 -617.61,172.54 -829.58,172.54zm4295.35 -5496.64c-37.92,32.58 -82.16,88.45 -128.64,131.16 -145.08,133.28 -343.8,222.53 -550.08,255.11 -857.05,135.32 -1663.77,-509.39 -1674.85,-1517.73 -7.46,-678.9 358.34,-1151.65 766.6,-1380.58 247.35,-138.71 571.72,-200.78 894.77,-155.31 245.15,34.51 567.93,197.41 692.7,355.69l0.69 -281.11 1031 0 -0.09 2905.43 -1030.31 0 -1.79 -312.66zm-10580.8 0c-37.92,32.58 -82.14,88.45 -128.63,131.16 -34.4,31.59 -109.57,86.87 -157.92,115.86 -744.36,446.26 -2052.46,-53.8 -2067.01,-1378.48 -13.85,-1261.16 1232.75,-1860.85 2060.14,-1402.54 89.61,49.64 254.29,172.06 293.93,222.34l-8.8 -281.11 1040.49 0 0.86 2905.43 -1031.26 0 -1.8 -312.66zm5409.99 52.86c-15.99,16.78 -21.65,-31.34 -19.89,107.73 3.62,286.01 11.6,1535.28 -10.51,1602.66 -118.64,20.6 -388.31,5.72 -523.16,5.72 -47.04,0 -476.32,19.84 -498.67,-18.66l-1.41 -4343.26 1024.81 8.17 2.2 298.36c39.89,-26.09 39.88,-35.87 72.66,-70.24 545.28,-571.84 1610.88,-362.59 2052.37,366.79 653.44,1079.54 -113.47,2529.22 -1379.79,2383.78 -255.98,-29.4 -583.09,-165.87 -718.61,-341.05zm-2597.02 -2256.2c90.4,-130.52 249.38,-268.56 389.82,-338.14 169.37,-83.92 484.67,-155.52 703.78,-99.28l-0.95 968.95c-90.69,-14.68 -186.03,-70.37 -319.81,-86.15 -357.76,-42.19 -668.04,77.83 -782.11,443.53 -95.42,305.85 -52.31,1237.7 -52.31,1626.57l-1025.04 -0.99 0.01 -2904.1 1025.03 8.17 0 445.65 61.58 -64.21zm8330.1 -6210.22c76.01,24.73 161.12,142.49 197.27,220.44 50.62,109.1 55.71,215 67.47,342.25l137.56 1474.81c16.66,181.65 76.73,588.12 63.28,749.81l-1793.88 372.95 1328.3 -3160.26zm-13036.06 5520.13c-363.04,-129.25 -342.79,-578.94 -382.86,-1019.6 -19.32,-212.51 -39.98,-425.89 -59.5,-638.99 -33.02,-360.65 -113.94,-630.31 33.48,-924.96 131.31,-262.48 330.92,-351.49 633.85,-416.04 172.75,-36.81 1029.83,-238.74 1132.08,-230.71l-1357.05 3230.3zm842.46 -64.07c129.35,-359.4 315.4,-748.47 464.27,-1108.32 154.35,-373.1 311.41,-735.65 468.78,-1112.06l351.03 -834.84c28.95,-67.59 83.01,-225.31 115.96,-279.51 33.29,-54.77 193.39,-66.27 303.08,-90.05 244.1,-52.92 806.34,-185.22 987.72,-207.11l-1419.39 3381.23c-107.83,-7.69 -510.62,96.56 -644.7,125.06 -147.01,31.25 -500.38,125.01 -626.75,125.6zm2172.49 -457.72c60.45,-173.67 156.14,-377.62 230,-552.01l703.51 -1667.85c78.48,-187.59 155.4,-369.9 234.38,-556.18 38.76,-91.44 77.6,-186.22 117.08,-278.22 31.29,-72.89 80.26,-218.14 115.72,-279.31 29.75,-51.32 73.76,-45.52 140.23,-59.4l487.74 -102.07c201.34,-43.73 458.43,-110.76 662.31,-135.66l-1417.27 3360.47 -83.23 24.56c-246.69,51.47 -1091.5,242.7 -1190.47,245.67zm2178.36 -456.96c6.06,-58.94 184.87,-460.03 224.53,-552.07 80.2,-186.12 155.93,-372.44 234.31,-556.25l936.61 -2224.19c41.92,-72.26 216.76,-77.57 300.2,-95.39 248.12,-52.99 795.63,-181.24 989.44,-203.67l-1414.16 3365.45 -1270.93 266.12zm2168.24 -447.14c28.9,-120.6 1053.13,-2526.39 1166.29,-2786.95 322.99,-743.68 77.82,-551.43 859.17,-721.31 211.05,-45.89 449.9,-106.63 658.78,-135.79 -25.49,108.65 -1398.15,3339.42 -1402.67,3345.37 -26.17,34.47 6.61,19.38 -70.6,36.16l-239.4 48.29c-106.8,22.9 -214.92,45.92 -326.17,69.16 -108.71,22.71 -586.62,109.94 -645.4,145.07zm2176.16 -472.52c48.54,-167.97 165.74,-404.1 234.75,-568.14l937.38 -2224.53c32.74,-78.18 206.94,-519.01 235.29,-553.16 25.66,-30.92 15.76,-22.88 72.36,-35.69l1204.07 -251.62c-17.41,74.9 -79.25,199.83 -112.43,278.53l-1287.76 3060.15c-28.98,46.45 11.54,21.37 -64.51,41.6 -20.09,5.34 -54.89,10.85 -76.95,15.26 -292.43,58.43 -937.14,213.91 -1142.2,237.6zm-9220.22 -5271.31c-721.5,34.27 -1277.01,324.13 -1664.45,729.19 -316.74,331.11 -567.85,765.04 -651.92,1235.41 -71.6,400.66 -44.38,1607.4 -44.38,2087.15l0 9607.85c0,1010.93 -89.25,1831.19 606.24,2607.61 37.91,42.32 91.5,95.69 128.17,130.13 356.31,334.62 719.88,543.81 1236.69,648.97 374.81,76.27 1618.35,45.24 2078.48,45.24l9623.04 0c1039.31,0 1786.24,95.73 2598.78,-605.43 42.79,-36.91 92.68,-90.24 130,-128.5 144.48,-148.11 239.15,-270.77 351.51,-454.05 369.64,-602.93 344.73,-1111.39 344.73,-1803.11l0 -10672c0,-352.42 12.92,-729.98 -3.65,-1079.37 -56.5,-1191.61 -905.21,-2113.12 -1963.05,-2310.2 -375.11,-69.88 -1622.6,-42.38 -2081.62,-42.38 -3207.68,0 -6415.36,0 -9623.05,0 -347.55,0 -722.22,-12.82 -1065.52,3.49z"/>
    <path class="fil1" d="M15483.64 18175.6c-981.87,222.06 -667.02,1695.09 338.78,1486.64 351.9,-72.93 677.79,-449.56 578.72,-899.24 -81.07,-367.98 -440.76,-695.22 -917.5,-587.4z"/>
    <path class="fil1" d="M15824.6 13412.09c-862.31,109.35 -705.28,1423.34 177.89,1307.7 329.15,-43.1 615.18,-362.53 563.67,-742.1 -44.88,-330.62 -357.12,-614.35 -741.56,-565.6z"/>
    <path class="fil1" d="M5243.81 13412.09c-862.3,109.35 -705.27,1423.34 177.89,1307.7 329.15,-43.1 615.18,-362.53 563.66,-742.1 -44.86,-330.62 -357.12,-614.35 -741.55,-565.6z"/>
    <path class="fil1" d="M11886.5 13411.72c-331.4,42.15 -616.82,356.91 -571.54,739.1 38.78,327.37 355.02,613.27 737.12,570.48 331.03,-37.08 615.04,-354.87 569.41,-737.68 -39.95,-335.13 -351.45,-620.68 -734.99,-571.9z"/>
    <path class="fil1" d="M7441.73 18430.33l1351.12 0c-140.54,-710.84 -1232.6,-765.86 -1351.12,0z"/>
   </g>
   <g>
    <path class="fil2" d="M4380.92 5143.19c343.3,-16.31 717.97,-3.49 1065.52,-3.49 3207.69,0 6415.37,0 9623.05,0 459.02,0 1706.51,-27.5 2081.62,42.38 1057.84,197.08 1906.55,1118.59 1963.05,2310.2 16.57,349.39 3.65,726.95 3.65,1079.37l0 10672c0,691.72 24.91,1200.18 -344.73,1803.11 -112.36,183.28 -207.03,305.94 -351.51,454.05 -37.32,38.26 -87.21,91.59 -130,128.5 -812.54,701.16 -1559.47,605.43 -2598.78,605.43l-9623.04 0c-460.13,0 -1703.67,31.03 -2078.48,-45.24 -516.81,-105.16 -880.38,-314.35 -1236.69,-648.97 -36.67,-34.44 -90.26,-87.81 -128.17,-130.13 -695.49,-776.42 -606.24,-1596.68 -606.24,-2607.61l0 -9607.85c0,-479.75 -27.22,-1686.49 44.38,-2087.15 84.07,-470.37 335.18,-904.3 651.92,-1235.41 387.44,-405.06 942.95,-694.92 1664.45,-729.19zm-100.79 -452.92c-968.67,73.5 -1658.07,517.39 -2175.69,1208.31 -141.59,188.99 -294.39,477.97 -382.62,742.27 -216.45,648.46 -154.98,1379.84 -154.98,2098.03l0 10124.72c0,1075.74 -90.21,1828.33 634.63,2743.38 74.31,93.79 322.09,349.86 415.21,421.17 1023.26,783.75 1673.6,662.59 2996.99,662.59l10124.73 0c362.32,0 775.42,18.28 1131.79,-6.71 1269.64,-88.99 2217.63,-960.16 2547.45,-1950.2 214.21,-642.99 153.57,-1385.05 153.57,-2098.27l0 -10124.72c0,-362.65 16.32,-765.23 -5.91,-1123.2 -78.82,-1268.98 -957.54,-2206.17 -1949.42,-2548.12 -630.43,-217.33 -1390.25,-155.82 -2090.32,-155.82l-10124.72 0c-355.11,0 -774.77,-19.68 -1120.71,6.57z"/>
    <g>
     <path class="fil2" d="M15483.64 18175.6c476.74,-107.82 836.43,219.42 917.5,587.4 99.07,449.68 -226.82,826.31 -578.72,899.24 -1005.8,208.45 -1320.65,-1264.58 -338.78,-1486.64zm-1827.87 794.41c0,934.61 725.88,1732.97 1672.16,1732.97 733.55,0 929.78,-387.14 1051.77,-465.55l1.02 449.5c109.37,13.14 1120.41,14.09 1189.54,-4.74 0,-357.27 -17.97,-3356.35 11.51,-3438.86l-1201.05 -2.55 0 321.16c-59.41,-28.26 -53.93,-40.07 -103.29,-88.56 -254.68,-250.15 -636.26,-339.02 -995.11,-339.02 -905.15,0 -1626.55,818.29 -1626.55,1729.24l0 106.41z"/>
     <path class="fil2" d="M11886.5 13411.72c383.54,-48.78 695.04,236.77 734.99,571.9 45.63,382.81 -238.38,700.6 -569.41,737.68 -382.1,42.79 -698.34,-243.11 -737.12,-570.48 -45.28,-382.19 240.14,-696.95 571.54,-739.1zm-1572.32 3544.93l1017.31 4.07 0 -1718.96c71.79,-4.61 5.74,-4.24 34.92,17.44 135.52,175.18 462.63,311.65 718.61,341.05 1266.32,145.44 2033.23,-1304.24 1379.79,-2383.78 -441.49,-729.38 -1507.09,-938.63 -2052.37,-366.79 -32.78,34.37 -32.77,44.15 -72.66,70.24l-2.2 -298.36 -1024.81 -8.17 1.41 4343.26z"/>
     <path class="fil2" d="M7441.73 18430.33c118.52,-765.86 1210.58,-710.84 1351.12,0l-1351.12 0zm2455.09 687.8c52.53,-530.73 -128.57,-1056.32 -372.62,-1382.96 -221.44,-296.37 -625.67,-543.78 -1159.12,-605.15 -1124.73,-129.41 -1940.41,429.44 -2119.12,1377.53 -102.06,541.52 -8.63,1045.06 247.74,1436.77 651.67,995.67 2416.43,1021.86 3065.62,204.29 213.1,-268.36 205.13,-397.81 299.55,-578.14l-1143.93 1.47c-60.46,60.12 -72.7,104.33 -137.78,157.01 -201.32,162.95 -465.25,191.06 -713.69,122.37 -319.3,-88.3 -456.02,-343.02 -471.13,-733.19l2504.48 0z"/>
     <path class="fil2" d="M5243.81 13412.09c384.43,-48.75 696.69,234.98 741.55,565.6 51.52,379.57 -234.51,699 -563.66,742.1 -883.16,115.64 -1040.19,-1198.35 -177.89,-1307.7zm712.61 1794.25l1.8 312.66 1031.26 0 -0.86 -2905.43 -1040.49 0 8.8 281.11c-39.64,-50.28 -204.32,-172.7 -293.93,-222.34 -827.39,-458.31 -2073.99,141.38 -2060.14,1402.54 14.55,1324.68 1322.65,1824.74 2067.01,1378.48 48.35,-28.99 123.52,-84.27 157.92,-115.86 46.49,-42.71 90.71,-98.58 128.63,-131.16z"/>
     <path class="fil2" d="M15824.6 13412.09c384.44,-48.75 696.68,234.98 741.56,565.6 51.51,379.57 -234.52,699 -563.67,742.1 -883.17,115.64 -1040.2,-1198.35 -177.89,-1307.7zm712.62 1794.25l1.79 312.66 1030.31 0 0.09 -2905.43 -1031 0 -0.69 281.11c-124.77,-158.28 -447.55,-321.18 -692.7,-355.69 -323.05,-45.47 -647.42,16.6 -894.77,155.31 -408.26,228.93 -774.06,701.68 -766.6,1380.58 11.08,1008.34 817.8,1653.05 1674.85,1517.73 206.28,-32.58 405,-121.83 550.08,-255.11 46.48,-42.71 90.72,-98.58 128.64,-131.16z"/>
     <path class="fil2" d="M3572.77 18228.79l393.26 2.81 -1.81 2444.75c212.35,0.18 1042.96,9.7 1189.47,-4.62l4.86 -2442.94 667.86 0 0.01 -991.1 -672.64 -0.65 0 -1006.86 -1176.27 -0.34c-36.52,166.01 -9.44,789.26 -9.38,1004.26l-395.32 2.94 -0.04 991.75z"/>
     <path class="fil2" d="M12241.87 20702.98c211.97,0 667.27,-76.73 829.58,-172.54 36.68,-21.65 20.07,1.19 40.71,-40.21l0 -978.59c-153.2,80.54 -183.27,143.73 -419.01,198.4 -178.7,41.44 -374.04,25.84 -529.86,-38.01 -854.38,-350.09 -525.06,-1733.72 503.75,-1539.21 239.54,45.29 326.34,141.9 445.12,186.3l-0.09 -1008c-97.32,-23.15 -212.41,-87.3 -337.53,-119.42 -1087.41,-279.04 -2302.69,420.17 -2328.49,1717.49 -19.83,998.12 782.77,1793.79 1795.82,1793.79z"/>
     <path class="fil2" d="M8707.81 13067.21l0 -445.65 -1025.03 -8.17 -0.01 2904.1 1025.04 0.99c0,-388.87 -43.11,-1320.72 52.31,-1626.57 114.07,-365.7 424.35,-485.72 782.11,-443.53 133.78,15.78 229.12,71.47 319.81,86.15l0.95 -968.95c-219.11,-56.24 -534.41,15.36 -703.78,99.28 -140.44,69.58 -299.42,207.62 -389.82,338.14l-61.58 64.21z"/>
     <path class="fil2" d="M10314.18 16956.65c22.35,38.5 451.63,18.66 498.67,18.66 134.85,0 404.52,14.88 523.16,-5.72 22.11,-67.38 14.13,-1316.65 10.51,-1602.66 -1.76,-139.07 3.9,-90.95 19.89,-107.73 -29.18,-21.68 36.87,-22.05 -34.92,-17.44l0 1718.96 -1017.31 -4.07z"/>
    </g>
   </g>
  </g>
 </g>
</svg>