<?xml version="1.0" encoding="UTF-8"?>
<svg xmlns="http://www.w3.org/2000/svg" xmlns:xlink="http://www.w3.org/1999/xlink" width="32px" height="25px" viewBox="0 0 32 25" version="1.1">
<g id="surface3">
<path style=" stroke:none;fill-rule:nonzero;fill:rgb(10.588235%,20%,33.725491%);fill-opacity:1;" d="M 4.613281 5.476562 C 4.613281 5.476562 4.804688 5.652344 5.125 5.984375 C 5.285156 6.148438 5.472656 6.351562 5.691406 6.582031 C 5.910156 6.8125 6.160156 7.074219 6.429688 7.359375 C 7.507812 8.5 8.941406 10.019531 10.378906 11.542969 C 11.816406 13.0625 13.25 14.585938 14.324219 15.730469 C 14.59375 16.015625 14.839844 16.277344 15.058594 16.507812 C 15.277344 16.738281 15.46875 16.941406 15.625 17.109375 C 15.777344 17.28125 15.902344 17.410156 15.980469 17.503906 C 16.0625 17.59375 16.105469 17.644531 16.105469 17.644531 L 16.09375 17.65625 C 16.09375 17.65625 16.046875 17.609375 15.960938 17.523438 C 15.875 17.4375 15.75 17.308594 15.589844 17.144531 C 15.429688 16.980469 15.238281 16.777344 15.019531 16.546875 C 14.800781 16.3125 14.554688 16.054688 14.285156 15.769531 C 13.207031 14.628906 11.765625 13.109375 10.328125 11.589844 C 8.894531 10.070312 7.457031 8.546875 6.378906 7.40625 C 6.109375 7.121094 5.863281 6.859375 5.644531 6.628906 C 5.425781 6.394531 5.234375 6.195312 5.078125 6.027344 C 4.769531 5.6875 4.601562 5.488281 4.601562 5.488281 Z M 4.613281 5.476562 "/>
<path style=" stroke:none;fill-rule:nonzero;fill:rgb(10.588235%,20%,33.725491%);fill-opacity:1;" d="M 6.152344 5.175781 C 6.152344 5.175781 6.164062 5.183594 6.1875 5.199219 C 6.207031 5.21875 6.234375 5.25 6.273438 5.285156 C 6.347656 5.363281 6.457031 5.472656 6.59375 5.613281 C 6.734375 5.757812 6.898438 5.929688 7.085938 6.132812 C 7.277344 6.332031 7.492188 6.558594 7.722656 6.804688 C 8.65625 7.792969 9.902344 9.109375 11.148438 10.425781 C 12.390625 11.742188 13.632812 13.0625 14.566406 14.050781 C 14.800781 14.296875 15.011719 14.523438 15.203125 14.722656 C 15.390625 14.925781 15.554688 15.101562 15.691406 15.246094 C 15.824219 15.390625 15.929688 15.507812 16 15.585938 C 16.070312 15.664062 16.105469 15.707031 16.105469 15.707031 L 16.09375 15.71875 C 16.09375 15.71875 16.054688 15.679688 15.980469 15.605469 C 15.902344 15.53125 15.792969 15.417969 15.65625 15.277344 C 15.519531 15.136719 15.351562 14.960938 15.164062 14.761719 C 14.972656 14.5625 14.757812 14.335938 14.523438 14.089844 C 13.589844 13.101562 12.34375 11.785156 11.097656 10.46875 C 9.855469 9.152344 8.613281 7.835938 7.679688 6.847656 C 7.445312 6.601562 7.230469 6.375 7.042969 6.171875 C 6.851562 5.972656 6.6875 5.796875 6.554688 5.652344 C 6.417969 5.507812 6.316406 5.390625 6.246094 5.3125 C 6.207031 5.273438 6.179688 5.242188 6.164062 5.222656 C 6.148438 5.199219 6.140625 5.1875 6.140625 5.1875 Z M 6.152344 5.175781 "/>
<path style=" stroke:none;fill-rule:nonzero;fill:rgb(10.588235%,20%,33.725491%);fill-opacity:1;" d="M 8.4375 5.476562 C 8.4375 5.476562 8.46875 5.503906 8.53125 5.5625 C 8.59375 5.621094 8.679688 5.707031 8.789062 5.820312 C 9.003906 6.046875 9.308594 6.375 9.679688 6.765625 C 10.417969 7.542969 11.398438 8.585938 12.382812 9.625 C 13.363281 10.667969 14.347656 11.710938 15.082031 12.492188 C 15.265625 12.6875 15.4375 12.867188 15.585938 13.027344 C 15.734375 13.183594 15.863281 13.324219 15.972656 13.4375 C 16.078125 13.554688 16.160156 13.644531 16.214844 13.707031 C 16.269531 13.769531 16.300781 13.804688 16.300781 13.804688 L 16.285156 13.816406 C 16.285156 13.816406 16.253906 13.785156 16.195312 13.726562 C 16.136719 13.667969 16.050781 13.578125 15.941406 13.46875 C 15.832031 13.355469 15.699219 13.21875 15.550781 13.058594 C 15.398438 12.902344 15.230469 12.722656 15.046875 12.527344 C 14.308594 11.746094 13.324219 10.707031 12.339844 9.667969 C 11.355469 8.625 10.375 7.582031 9.636719 6.800781 C 9.269531 6.410156 8.960938 6.085938 8.746094 5.859375 C 8.640625 5.746094 8.558594 5.652344 8.503906 5.585938 C 8.449219 5.523438 8.421875 5.488281 8.421875 5.488281 Z M 8.4375 5.476562 "/>
<path style=" stroke:none;fill-rule:nonzero;fill:rgb(10.588235%,20%,33.725491%);fill-opacity:1;" d="M 10.089844 5.214844 C 10.089844 5.214844 10.117188 5.238281 10.164062 5.285156 C 10.1875 5.308594 10.21875 5.335938 10.253906 5.371094 C 10.285156 5.40625 10.324219 5.445312 10.371094 5.488281 C 10.457031 5.578125 10.558594 5.6875 10.679688 5.8125 C 10.800781 5.9375 10.933594 6.078125 11.082031 6.230469 C 11.671875 6.847656 12.457031 7.667969 13.246094 8.488281 C 14.027344 9.3125 14.8125 10.136719 15.402344 10.753906 C 15.550781 10.90625 15.683594 11.046875 15.804688 11.171875 C 15.921875 11.296875 16.027344 11.40625 16.109375 11.5 C 16.195312 11.589844 16.257812 11.664062 16.304688 11.714844 C 16.347656 11.765625 16.371094 11.792969 16.371094 11.792969 L 16.355469 11.804688 C 16.355469 11.804688 16.332031 11.78125 16.28125 11.734375 C 16.234375 11.6875 16.164062 11.621094 16.074219 11.53125 C 15.988281 11.445312 15.882812 11.335938 15.765625 11.210938 C 15.644531 11.085938 15.507812 10.945312 15.363281 10.789062 C 14.773438 10.171875 13.988281 9.351562 13.203125 8.527344 C 12.421875 7.707031 11.636719 6.882812 11.050781 6.261719 C 10.902344 6.109375 10.769531 5.96875 10.648438 5.84375 C 10.53125 5.714844 10.425781 5.605469 10.339844 5.515625 C 10.296875 5.472656 10.261719 5.429688 10.226562 5.394531 C 10.195312 5.359375 10.167969 5.328125 10.144531 5.300781 C 10.101562 5.253906 10.078125 5.226562 10.078125 5.226562 Z M 10.089844 5.214844 "/>
<path style=" stroke:none;fill-rule:nonzero;fill:rgb(10.588235%,20%,33.725491%);fill-opacity:1;" d="M 12.824219 5.96875 C 12.824219 5.96875 12.894531 6.019531 13 6.128906 C 13.050781 6.183594 13.113281 6.25 13.1875 6.324219 C 13.257812 6.402344 13.339844 6.488281 13.425781 6.582031 C 13.78125 6.960938 14.25 7.460938 14.71875 7.964844 C 15.1875 8.46875 15.65625 8.976562 16.007812 9.351562 C 16.09375 9.449219 16.175781 9.535156 16.246094 9.613281 C 16.320312 9.6875 16.378906 9.753906 16.429688 9.8125 C 16.527344 9.925781 16.578125 9.996094 16.578125 9.996094 L 16.566406 10.007812 C 16.566406 10.007812 16.5 9.953125 16.394531 9.84375 C 16.339844 9.792969 16.277344 9.726562 16.207031 9.648438 C 16.136719 9.574219 16.054688 9.484375 15.964844 9.390625 C 15.613281 9.015625 15.144531 8.511719 14.671875 8.011719 C 14.203125 7.507812 13.734375 7 13.382812 6.625 C 13.296875 6.527344 13.214844 6.441406 13.144531 6.363281 C 13.074219 6.289062 13.011719 6.222656 12.960938 6.164062 C 12.859375 6.050781 12.8125 5.980469 12.8125 5.980469 Z M 12.824219 5.96875 "/>
<path style=" stroke:none;fill-rule:nonzero;fill:rgb(10.588235%,20%,33.725491%);fill-opacity:1;" d="M 13.980469 5.183594 C 13.980469 5.183594 14.039062 5.226562 14.128906 5.320312 C 14.171875 5.363281 14.226562 5.421875 14.285156 5.484375 C 14.347656 5.550781 14.414062 5.621094 14.488281 5.699219 C 14.785156 6.019531 15.183594 6.441406 15.578125 6.863281 C 15.972656 7.289062 16.367188 7.714844 16.664062 8.03125 C 16.738281 8.113281 16.804688 8.183594 16.867188 8.25 C 16.925781 8.3125 16.976562 8.371094 17.019531 8.417969 C 17.101562 8.515625 17.144531 8.574219 17.144531 8.574219 L 17.132812 8.585938 C 17.132812 8.585938 17.074219 8.542969 16.984375 8.453125 C 16.9375 8.40625 16.886719 8.351562 16.824219 8.285156 C 16.765625 8.222656 16.695312 8.148438 16.621094 8.070312 C 16.324219 7.753906 15.929688 7.328125 15.535156 6.90625 C 15.140625 6.480469 14.746094 6.054688 14.449219 5.738281 C 14.375 5.65625 14.308594 5.585938 14.25 5.519531 C 14.1875 5.457031 14.136719 5.398438 14.09375 5.351562 C 14.011719 5.257812 13.96875 5.195312 13.96875 5.195312 Z M 13.980469 5.183594 "/>
<path style=" stroke:none;fill-rule:nonzero;fill:rgb(10.588235%,20%,33.725491%);fill-opacity:1;" d="M 14.585938 3.828125 C 14.585938 3.828125 14.636719 3.863281 14.710938 3.933594 C 14.746094 3.972656 14.789062 4.019531 14.839844 4.070312 C 14.886719 4.125 14.945312 4.183594 15.003906 4.246094 C 15.125 4.378906 15.265625 4.53125 15.417969 4.691406 C 15.570312 4.855469 15.730469 5.03125 15.890625 5.203125 C 16.210938 5.550781 16.53125 5.902344 16.773438 6.164062 C 16.894531 6.292969 16.992188 6.402344 17.0625 6.476562 C 17.132812 6.554688 17.171875 6.601562 17.171875 6.601562 L 17.160156 6.613281 C 17.160156 6.613281 17.117188 6.570312 17.046875 6.496094 C 16.972656 6.421875 16.871094 6.3125 16.75 6.183594 C 16.507812 5.925781 16.179688 5.582031 15.855469 5.234375 C 15.695312 5.0625 15.53125 4.890625 15.378906 4.730469 C 15.226562 4.566406 15.085938 4.414062 14.964844 4.285156 C 14.902344 4.21875 14.847656 4.160156 14.800781 4.109375 C 14.75 4.054688 14.707031 4.007812 14.671875 3.96875 C 14.605469 3.890625 14.574219 3.839844 14.574219 3.839844 Z M 14.585938 3.828125 "/>
<path style=" stroke:none;fill-rule:nonzero;fill:rgb(28.235295%,7.058824%,49.803922%);fill-opacity:1;" d="M 17.539062 20.738281 C 17.515625 20.816406 17.125 23.734375 15.636719 23.976562 C 14.078125 24.230469 15.863281 16.113281 16.007812 13.9375 C 16.164062 11.609375 16.8125 4.332031 16.035156 4.070312 C 15.253906 3.8125 14.078125 7.039062 12.519531 7.507812 C 10.960938 7.976562 8.386719 5.453125 7.082031 5.410156 C 5.222656 5.347656 3.414062 6.609375 3.414062 6.609375 L 2.496094 5.796875 C 2.496094 5.796875 5.988281 3.8125 7.730469 3.941406 C 9.46875 4.074219 11.628906 6.285156 12.40625 5.929688 C 13.464844 5.445312 14.976562 2.867188 15.851562 2.445312 C 16.703125 2.03125 17.351562 2.554688 17.539062 3.648438 C 17.925781 5.851562 17.070312 12.078125 16.910156 13.722656 C 16.757812 15.261719 16.371094 20.097656 16.355469 20.804688 C 16.335938 21.507812 16.175781 22.78125 16.917969 21.8125 C 17.253906 21.371094 17.539062 20.738281 17.539062 20.738281 Z M 17.539062 20.738281 "/>
<path style=" stroke:none;fill-rule:nonzero;fill:rgb(28.235295%,7.058824%,49.803922%);fill-opacity:1;" d="M 15.164062 18.597656 L 15.105469 20.289062 C 15.105469 20.289062 13.699219 18.269531 13.359375 17.933594 C 13.023438 17.597656 9.441406 13.699219 7.257812 11.441406 C 4.832031 8.929688 2.660156 6.894531 1.75 6.089844 C 1.585938 5.941406 1.238281 6.378906 1.238281 6.378906 C 1.238281 6.378906 1.050781 5.230469 1.386719 4.894531 C 1.726562 4.558594 4.476562 7.207031 5.152344 7.855469 C 5.828125 8.503906 12.816406 16.0625 13.59375 16.867188 C 14.371094 17.671875 15.164062 18.140625 15.164062 18.140625 "/>
<path style=" stroke:none;fill-rule:nonzero;fill:rgb(92.54902%,27.058825%,57.254905%);fill-opacity:1;" d="M 17.523438 20.757812 C 17.5 20.835938 16.292969 24.085938 15.257812 23.878906 C 14.285156 23.683594 15.195312 16.515625 15.34375 14.339844 C 15.5 12.011719 16.605469 4.011719 15.828125 3.753906 C 15.046875 3.492188 13.472656 6.730469 11.914062 7.199219 C 10.355469 7.667969 7.839844 5.136719 6.539062 5.09375 C 4.675781 5.035156 2.726562 6.363281 2.726562 6.363281 L 2.046875 5.859375 C 2.046875 5.859375 4.953125 4.160156 6.695312 4.289062 C 8.433594 4.417969 10.964844 6.691406 11.742188 6.332031 C 12.796875 5.847656 14.578125 3.242188 15.1875 2.847656 C 15.949219 2.351562 16.800781 2.792969 16.988281 4.132812 C 17.300781 6.351562 16.40625 12.480469 16.242188 14.125 C 16.09375 15.664062 15.707031 20.5 15.6875 21.207031 C 15.671875 21.910156 15.601562 23.203125 16.382812 22.265625 C 17.144531 21.347656 17.523438 20.757812 17.523438 20.757812 Z M 17.523438 20.757812 "/>
<path style=" stroke:none;fill-rule:nonzero;fill:rgb(92.54902%,27.058825%,57.254905%);fill-opacity:1;" d="M 14.972656 19.230469 L 14.960938 20.808594 C 14.960938 20.808594 15.191406 20.605469 13.890625 19.101562 C 13.578125 18.738281 9.359375 14.242188 7.179688 11.984375 C 4.753906 9.476562 2.582031 7.4375 1.671875 6.632812 C 1.507812 6.488281 1.308594 6.917969 1.308594 6.917969 C 1.308594 6.917969 0.972656 5.777344 1.308594 5.4375 C 1.648438 5.101562 4.398438 7.75 5.074219 8.398438 C 5.75 9.050781 12.734375 16.609375 13.515625 17.414062 C 14.292969 18.21875 14.972656 18.535156 14.972656 18.535156 "/>
<path style=" stroke:none;fill-rule:nonzero;fill:rgb(28.235295%,7.058824%,49.803922%);fill-opacity:1;" d="M 19.023438 18.980469 C 19.132812 18.398438 20.480469 8.90625 20.554688 8.8125 C 20.644531 8.703125 20.933594 8.804688 20.914062 8.625 C 20.882812 8.324219 20.410156 7.015625 20.175781 6.988281 C 19.941406 6.964844 18.902344 7.925781 18.839844 8.195312 C 18.800781 8.359375 19.023438 8.34375 19.105469 8.484375 C 19.183594 8.621094 17.957031 18.167969 17.902344 18.6875 C 17.851562 19.207031 18.007812 19.855469 18.164062 19.90625 C 18.320312 19.957031 18.945312 19.386719 19.023438 18.980469 Z M 19.023438 18.980469 "/>
<path style=" stroke:none;fill-rule:nonzero;fill:rgb(10.588235%,20%,33.725491%);fill-opacity:1;" d="M 19.105469 8.484375 C 19.105469 8.484375 19.015625 8.722656 18.96875 9.09375 C 18.921875 9.460938 18.957031 9.855469 18.957031 9.855469 C 18.957031 9.855469 19.273438 10.050781 19.59375 10.101562 C 19.996094 10.167969 20.328125 10.125 20.328125 10.125 C 20.328125 10.125 20.449219 9.847656 20.515625 9.457031 C 20.546875 9.257812 20.554688 8.8125 20.554688 8.8125 C 20.554688 8.8125 20.339844 8.894531 19.832031 8.8125 C 19.351562 8.730469 19.105469 8.484375 19.105469 8.484375 Z M 19.105469 8.484375 "/>
<path style=" stroke:none;fill-rule:nonzero;fill:rgb(10.588235%,20%,33.725491%);fill-opacity:1;" d="M 18.945312 10.183594 C 18.945312 10.183594 18.757812 10.578125 18.707031 11.023438 C 18.652344 11.46875 18.707031 12.039062 18.707031 12.039062 L 18.878906 12.039062 C 18.878906 12.039062 18.910156 11.40625 18.945312 11.195312 C 18.976562 10.984375 19.121094 10.285156 19.121094 10.285156 Z M 18.945312 10.183594 "/>
<path style=" stroke:none;fill-rule:nonzero;fill:rgb(10.588235%,20%,33.725491%);fill-opacity:1;" d="M 20.117188 6.675781 C 20.164062 6.554688 20.34375 6.605469 20.324219 6.738281 C 20.308594 6.878906 20.289062 7.074219 20.289062 7.074219 C 20.289062 7.074219 20.222656 7.121094 20.144531 7.097656 C 20.070312 7.074219 20.050781 7.023438 20.050781 7.023438 C 20.050781 7.023438 20.066406 6.796875 20.117188 6.675781 Z M 20.117188 6.675781 "/>
<path style=" stroke:none;fill-rule:nonzero;fill:rgb(28.235295%,7.058824%,49.803922%);fill-opacity:1;" d="M 19.75 20.667969 C 19.925781 20.730469 20.402344 20.269531 20.554688 19.820312 C 20.707031 19.371094 23.195312 8.953125 23.195312 8.953125 C 23.195312 8.953125 22.878906 9.214844 22.429688 9.144531 C 22.097656 9.089844 21.832031 8.679688 21.832031 8.679688 C 21.832031 8.679688 19.53125 19.421875 19.546875 19.722656 C 19.566406 20.027344 19.554688 20.597656 19.75 20.667969 Z M 19.75 20.667969 "/>
<path style=" stroke:none;fill-rule:nonzero;fill:rgb(92.54902%,27.058825%,57.254905%);fill-opacity:1;" d="M 22.597656 8.378906 C 23.035156 8.457031 23.261719 8.222656 23.261719 8.222656 C 23.261719 8.222656 23.664062 7.386719 23.761719 6.867188 C 23.859375 6.347656 24 5.914062 23.859375 5.53125 C 23.738281 5.207031 22.675781 4.996094 22.34375 5.222656 C 22.011719 5.449219 22.050781 5.96875 21.980469 6.464844 C 21.921875 6.890625 21.96875 8.035156 21.96875 8.035156 C 21.96875 8.035156 22.046875 8.148438 22.226562 8.25 C 22.320312 8.300781 22.441406 8.351562 22.597656 8.378906 Z M 22.597656 8.378906 "/>
<path style=" stroke:none;fill-rule:nonzero;fill:rgb(10.588235%,20%,33.725491%);fill-opacity:1;" d="M 21.964844 7.972656 C 21.964844 7.972656 21.855469 8.160156 21.851562 8.328125 C 21.84375 8.46875 21.796875 8.5 21.789062 8.585938 C 21.785156 8.640625 21.792969 8.667969 21.824219 8.730469 C 21.894531 8.859375 22.058594 9.085938 22.398438 9.160156 C 22.808594 9.253906 23.109375 9.09375 23.183594 9 C 23.210938 8.964844 23.234375 8.960938 23.261719 8.882812 C 23.292969 8.804688 23.238281 8.683594 23.28125 8.597656 C 23.367188 8.429688 23.273438 8.1875 23.273438 8.1875 C 23.269531 8.191406 22.980469 8.382812 22.601562 8.320312 C 22.222656 8.261719 21.964844 7.972656 21.964844 7.972656 Z M 21.964844 7.972656 "/>
<path style=" stroke:none;fill-rule:nonzero;fill:rgb(28.235295%,7.058824%,49.803922%);fill-opacity:1;" d="M 22.152344 7.769531 C 22.148438 7.496094 22.195312 6.890625 22.34375 6.101562 C 22.40625 5.765625 22.628906 5.292969 22.628906 5.292969 C 22.402344 6.136719 22.417969 6.136719 22.367188 6.433594 C 22.308594 6.777344 22.269531 7.066406 22.246094 7.253906 C 22.214844 7.558594 22.21875 8.421875 22.21875 8.421875 C 22.21875 8.421875 22.152344 7.992188 22.152344 7.769531 Z M 22.152344 7.769531 "/>
<path style=" stroke:none;fill-rule:nonzero;fill:rgb(28.235295%,7.058824%,49.803922%);fill-opacity:1;" d="M 23.589844 6.105469 C 23.578125 6.378906 23.5 6.984375 23.308594 7.761719 C 23.226562 8.09375 23.003906 8.472656 23.003906 8.472656 C 23.277344 7.644531 23.238281 7.71875 23.300781 7.429688 C 23.378906 7.085938 23.425781 6.824219 23.457031 6.636719 C 23.507812 6.335938 23.558594 5.453125 23.558594 5.453125 C 23.558594 5.453125 23.601562 5.886719 23.589844 6.105469 Z M 23.589844 6.105469 "/>
<path style=" stroke:none;fill-rule:nonzero;fill:rgb(28.235295%,7.058824%,49.803922%);fill-opacity:1;" d="M 23.359375 6.066406 C 23.34375 6.339844 23.269531 6.953125 23.074219 7.734375 C 22.992188 8.066406 22.746094 8.53125 22.746094 8.53125 C 23.019531 7.695312 23.003906 7.691406 23.070312 7.398438 C 23.148438 7.054688 23.203125 6.777344 23.234375 6.589844 C 23.285156 6.285156 23.324219 5.40625 23.324219 5.40625 C 23.324219 5.40625 23.367188 5.84375 23.359375 6.066406 Z M 23.359375 6.066406 "/>
<path style=" stroke:none;fill-rule:nonzero;fill:rgb(28.235295%,7.058824%,49.803922%);fill-opacity:1;" d="M 22.34375 7.765625 C 22.347656 7.496094 22.414062 6.894531 22.585938 6.121094 C 22.660156 5.789062 22.894531 5.328125 22.894531 5.328125 C 22.640625 6.15625 22.65625 6.160156 22.597656 6.449219 C 22.53125 6.789062 22.496094 7.050781 22.46875 7.238281 C 22.425781 7.539062 22.394531 8.410156 22.394531 8.410156 C 22.394531 8.410156 22.339844 7.984375 22.34375 7.765625 Z M 22.34375 7.765625 "/>
<path style=" stroke:none;fill-rule:nonzero;fill:rgb(28.235295%,7.058824%,49.803922%);fill-opacity:1;" d="M 22.96875 6.421875 C 22.9375 6.695312 22.878906 6.949219 22.792969 7.5 C 22.738281 7.847656 22.601562 8.347656 22.578125 8.578125 C 22.644531 7.875 22.683594 7.8125 22.71875 7.511719 C 22.753906 7.199219 22.816406 6.867188 22.847656 6.679688 C 22.894531 6.375 23.039062 5.46875 23.039062 5.46875 C 23.039062 5.46875 22.996094 6.191406 22.96875 6.421875 Z M 22.96875 6.421875 "/>
<path style=" stroke:none;fill-rule:nonzero;fill:rgb(28.235295%,7.058824%,49.803922%);fill-opacity:1;" d="M 22.203125 20.253906 L 23.191406 20.691406 L 30.828125 8.160156 L 29 7.289062 Z M 22.203125 20.253906 "/>
<path style=" stroke:none;fill-rule:nonzero;fill:rgb(28.235295%,7.058824%,49.803922%);fill-opacity:1;" d="M 21.121094 20.167969 L 22.261719 20.234375 L 27.496094 6.707031 L 25.550781 6.113281 Z M 21.121094 20.167969 "/>
<path style=" stroke:none;fill-rule:nonzero;fill:rgb(92.54902%,27.058825%,57.254905%);fill-opacity:1;" d="M 24.28125 18.90625 L 22.691406 19.320312 L 23.519531 17.742188 L 25.226562 17.347656 Z M 24.28125 18.90625 "/>
<path style=" stroke:none;fill-rule:nonzero;fill:rgb(92.54902%,27.058825%,57.254905%);fill-opacity:1;" d="M 26.253906 15.664062 L 24.394531 16.074219 L 25.242188 14.457031 L 27.226562 14.066406 Z M 26.253906 15.664062 "/>
<path style=" stroke:none;fill-rule:nonzero;fill:rgb(92.54902%,27.058825%,57.254905%);fill-opacity:1;" d="M 28.242188 12.402344 L 25.996094 13.03125 L 26.824219 11.449219 L 29.171875 10.886719 Z M 28.242188 12.402344 "/>
<path style=" stroke:none;fill-rule:nonzero;fill:rgb(92.54902%,27.058825%,57.254905%);fill-opacity:1;" d="M 22.636719 19.265625 L 21.253906 19.742188 L 21.757812 18.152344 L 23.28125 17.597656 Z M 22.636719 19.265625 "/>
<path style=" stroke:none;fill-rule:nonzero;fill:rgb(92.54902%,27.058825%,57.254905%);fill-opacity:1;" d="M 23.957031 15.832031 L 22.320312 16.363281 L 22.878906 14.589844 L 24.625 14.125 Z M 23.957031 15.832031 "/>
<path style=" stroke:none;fill-rule:nonzero;fill:rgb(92.54902%,27.058825%,57.254905%);fill-opacity:1;" d="M 25.210938 12.609375 L 23.253906 13.402344 L 23.789062 11.703125 L 25.851562 10.957031 Z M 25.210938 12.609375 "/>
<path style=" stroke:none;fill-rule:nonzero;fill:rgb(92.54902%,27.058825%,57.254905%);fill-opacity:1;" d="M 30.125 9.304688 L 27.617188 9.941406 L 28.433594 8.386719 L 30.46875 7.992188 L 30.832031 8.164062 Z M 30.125 9.304688 "/>
<path style=" stroke:none;fill-rule:nonzero;fill:rgb(92.54902%,27.058825%,57.254905%);fill-opacity:1;" d="M 26.460938 9.382812 L 24.25 10.226562 L 24.769531 8.59375 L 27.078125 7.789062 Z M 26.460938 9.382812 "/>
</g>
</svg>
